<svg id="Icons" xmlns="http://www.w3.org/2000/svg" xmlns:xlink="http://www.w3.org/1999/xlink" viewBox="0 0 215 215"><defs><style>.cls-1{fill:url(#Безымянный_градиент_2);}.cls-2{fill:#fff;fill-rule:evenodd;}</style><linearGradient id="Безымянный_градиент_2" x1="554" y1="107.5" x2="769" y2="107.5" gradientUnits="userSpaceOnUse"><stop offset="0" stop-color="#2aabee"/><stop offset="1" stop-color="#229ed9"/></linearGradient></defs><g id="Telegram"><path id="Background" class="cls-1" d="M554,103.2c0-48.65,0-73,15.11-88.09S608.55,0,657.2,0h8.6c48.65,0,73,0,88.09,15.11S769,54.55,769,103.2v8.6c0,48.65,0,73-15.11,88.09S714.45,215,665.8,215h-8.6c-48.65,0-73,0-88.09-15.11S554,160.45,554,111.8Z" transform="translate(-554)"/><path id="Telegram-2" data-name="Telegram" class="cls-2" d="M598.29,105q51.57-22.47,68.78-29.63c32.76-13.63,39.56-16,44-16.07a7.7,7.7,0,0,1,4.57,1.37,5,5,0,0,1,1.68,3.19,21,21,0,0,1,.2,4.65c-1.78,18.65-9.46,63.91-13.37,84.79-1.65,8.84-4.9,11.81-8.06,12.1-6.85.63-12.05-4.53-18.68-8.88-10.38-6.8-16.25-11-26.32-17.68-11.65-7.67-4.1-11.89,2.54-18.78,1.74-1.81,31.91-29.26,32.5-31.75a2.41,2.41,0,0,0-.55-2.08,2.68,2.68,0,0,0-2.44-.24q-1.56.36-49.75,32.88-7.07,4.86-12.79,4.73c-4.22-.09-12.32-2.38-18.34-4.34-7.38-2.4-13.25-3.67-12.74-7.75Q589.91,108.31,598.29,105Z" transform="translate(-554)"/></g></svg>
<svg id="Icons" xmlns="http://www.w3.org/2000/svg" viewBox="0 0 215 215"><defs><style>.cls-1{fill:#07f;}.cls-2{fill:#fff;}</style></defs><g id="VK"><path id="Background" class="cls-1" d="M0,103.2c0-48.65,0-73,15.11-88.09S54.55,0,103.2,0h8.6c48.65,0,73,0,88.09,15.11S215,54.55,215,103.2v8.6c0,48.65,0,73-15.11,88.09S160.45,215,111.8,215h-8.6c-48.65,0-73,0-88.09-15.11S0,160.45,0,111.8Z"/><path id="VK-2" data-name="VK" class="cls-2" d="M112,151c-45.86,0-72-31.44-73.1-83.75h23c.75,38.4,17.69,54.66,31.1,58v-58h21.63v33.12c13.24-1.43,27.16-16.52,31.85-33.12h21.63c-3.6,20.46-18.69,35.55-29.42,41.75,10.73,5,27.91,18.19,34.45,42H149.29C144.18,135,131.44,122.7,114.59,121V151Z"/></g></svg>
<svg id="Icons" xmlns="http://www.w3.org/2000/svg" viewBox="0 0 215 215"><defs><style>.cls-1{fill:red;}.cls-2{fill:#fff;}</style></defs><g id="YouTube"><path id="Background" class="cls-1" d="M1385,380.2c0-48.65,0-73,15.11-88.09S1439.55,277,1488.2,277h8.6c48.65,0,73,0,88.09,15.11S1600,331.55,1600,380.2v8.6c0,48.65,0,73-15.11,88.09S1545.45,492,1496.8,492h-8.6c-48.65,0-73,0-88.09-15.11S1385,437.45,1385,388.8Z" transform="translate(-1385 -277)"/><path id="YouTube-2" data-name="YouTube" class="cls-2" d="M1550.87,354.5A15.34,15.34,0,0,0,1540,343.66c-9.56-2.56-47.89-2.56-47.89-2.56s-38.33,0-47.89,2.56a15.36,15.36,0,0,0-10.84,10.84c-2.56,9.56-2.56,29.5-2.56,29.5s0,19.94,2.56,29.5a15.36,15.36,0,0,0,10.84,10.84c9.56,2.56,47.89,2.56,47.89,2.56s38.33,0,47.89-2.56a15.34,15.34,0,0,0,10.83-10.84c2.56-9.56,2.56-29.5,2.56-29.5S1553.43,364.06,1550.87,354.5Zm-71,47.89V365.61L1511.73,384Z" transform="translate(-1385 -277)"/></g></svg>